G04 #@! TF.GenerationSoftware,KiCad,Pcbnew,(5.0.1-3-g963ef8bb5)*
G04 #@! TF.CreationDate,2018-11-12T05:35:08-08:00*
G04 #@! TF.ProjectId,AudioCreature,417564696F43726561747572652E6B69,rev?*
G04 #@! TF.SameCoordinates,Original*
G04 #@! TF.FileFunction,Copper,L2,Bot,Signal*
G04 #@! TF.FilePolarity,Positive*
%FSLAX46Y46*%
G04 Gerber Fmt 4.6, Leading zero omitted, Abs format (unit mm)*
G04 Created by KiCad (PCBNEW (5.0.1-3-g963ef8bb5)) date Monday, November 12, 2018 at 05:35:08 am*
%MOMM*%
%LPD*%
G01*
G04 APERTURE LIST*
G04 #@! TA.AperFunction,NonConductor*
%ADD10C,0.300000*%
G04 #@! TD*
G04 #@! TA.AperFunction,ComponentPad*
%ADD11R,2.200000X2.200000*%
G04 #@! TD*
G04 #@! TA.AperFunction,ComponentPad*
%ADD12O,2.200000X2.200000*%
G04 #@! TD*
G04 #@! TA.AperFunction,ComponentPad*
%ADD13C,3.500120*%
G04 #@! TD*
G04 #@! TA.AperFunction,ComponentPad*
%ADD14R,2.999740X2.999740*%
G04 #@! TD*
G04 #@! TA.AperFunction,ComponentPad*
%ADD15C,2.999740*%
G04 #@! TD*
G04 #@! TA.AperFunction,ComponentPad*
%ADD16C,1.600000*%
G04 #@! TD*
G04 #@! TA.AperFunction,ComponentPad*
%ADD17O,1.600000X1.600000*%
G04 #@! TD*
G04 #@! TA.AperFunction,ComponentPad*
%ADD18C,2.340000*%
G04 #@! TD*
G04 #@! TA.AperFunction,ComponentPad*
%ADD19R,1.600000X2.400000*%
G04 #@! TD*
G04 #@! TA.AperFunction,ComponentPad*
%ADD20O,1.600000X2.400000*%
G04 #@! TD*
G04 #@! TA.AperFunction,ComponentPad*
%ADD21C,8.600000*%
G04 #@! TD*
G04 #@! TA.AperFunction,ComponentPad*
%ADD22R,2.000000X2.000000*%
G04 #@! TD*
G04 #@! TA.AperFunction,ComponentPad*
%ADD23C,2.000000*%
G04 #@! TD*
G04 #@! TA.AperFunction,Conductor*
%ADD24C,1.000000*%
G04 #@! TD*
G04 APERTURE END LIST*
D10*
X66428571Y-26128571D02*
X66428571Y-24628571D01*
X65928571Y-25700000D01*
X65428571Y-24628571D01*
X65428571Y-26128571D01*
X64071428Y-26128571D02*
X64071428Y-25342857D01*
X64142857Y-25200000D01*
X64285714Y-25128571D01*
X64571428Y-25128571D01*
X64714285Y-25200000D01*
X64071428Y-26057142D02*
X64214285Y-26128571D01*
X64571428Y-26128571D01*
X64714285Y-26057142D01*
X64785714Y-25914285D01*
X64785714Y-25771428D01*
X64714285Y-25628571D01*
X64571428Y-25557142D01*
X64214285Y-25557142D01*
X64071428Y-25485714D01*
X63357142Y-26128571D02*
X63357142Y-24628571D01*
X63214285Y-25557142D02*
X62785714Y-26128571D01*
X62785714Y-25128571D02*
X63357142Y-25700000D01*
X61571428Y-26057142D02*
X61714285Y-26128571D01*
X62000000Y-26128571D01*
X62142857Y-26057142D01*
X62214285Y-25914285D01*
X62214285Y-25342857D01*
X62142857Y-25200000D01*
X62000000Y-25128571D01*
X61714285Y-25128571D01*
X61571428Y-25200000D01*
X61500000Y-25342857D01*
X61500000Y-25485714D01*
X62214285Y-25628571D01*
X60857142Y-26128571D02*
X60857142Y-24628571D01*
X60357142Y-25128571D02*
X59785714Y-25128571D01*
X60142857Y-24628571D02*
X60142857Y-25914285D01*
X60071428Y-26057142D01*
X59928571Y-26128571D01*
X59785714Y-26128571D01*
X59428571Y-24628571D02*
X58428571Y-24628571D01*
X59428571Y-26128571D01*
X58428571Y-26128571D01*
X57642857Y-26128571D02*
X57785714Y-26057142D01*
X57857142Y-25985714D01*
X57928571Y-25842857D01*
X57928571Y-25414285D01*
X57857142Y-25271428D01*
X57785714Y-25200000D01*
X57642857Y-25128571D01*
X57428571Y-25128571D01*
X57285714Y-25200000D01*
X57214285Y-25271428D01*
X57142857Y-25414285D01*
X57142857Y-25842857D01*
X57214285Y-25985714D01*
X57285714Y-26057142D01*
X57428571Y-26128571D01*
X57642857Y-26128571D01*
X56500000Y-25128571D02*
X56500000Y-26128571D01*
X56500000Y-25271428D02*
X56428571Y-25200000D01*
X56285714Y-25128571D01*
X56071428Y-25128571D01*
X55928571Y-25200000D01*
X55857142Y-25342857D01*
X55857142Y-26128571D01*
X54571428Y-26057142D02*
X54714285Y-26128571D01*
X55000000Y-26128571D01*
X55142857Y-26057142D01*
X55214285Y-25914285D01*
X55214285Y-25342857D01*
X55142857Y-25200000D01*
X55000000Y-25128571D01*
X54714285Y-25128571D01*
X54571428Y-25200000D01*
X54500000Y-25342857D01*
X54500000Y-25485714D01*
X55214285Y-25628571D01*
X65357142Y-27678571D02*
X65357142Y-29178571D01*
X64642857Y-28464285D02*
X64571428Y-28607142D01*
X64428571Y-28678571D01*
X65357142Y-28464285D02*
X65285714Y-28607142D01*
X65142857Y-28678571D01*
X64857142Y-28678571D01*
X64714285Y-28607142D01*
X64642857Y-28464285D01*
X64642857Y-27678571D01*
X63285714Y-27892857D02*
X63071428Y-27964285D01*
X62999999Y-28035714D01*
X62928571Y-28178571D01*
X62928571Y-28392857D01*
X62999999Y-28535714D01*
X63071428Y-28607142D01*
X63214285Y-28678571D01*
X63785714Y-28678571D01*
X63785714Y-27178571D01*
X63285714Y-27178571D01*
X63142857Y-27250000D01*
X63071428Y-27321428D01*
X62999999Y-27464285D01*
X62999999Y-27607142D01*
X63071428Y-27750000D01*
X63142857Y-27821428D01*
X63285714Y-27892857D01*
X63785714Y-27892857D01*
X62285714Y-28678571D02*
X62285714Y-27678571D01*
X62285714Y-27178571D02*
X62357142Y-27250000D01*
X62285714Y-27321428D01*
X62214285Y-27250000D01*
X62285714Y-27178571D01*
X62285714Y-27321428D01*
X61785714Y-27678571D02*
X61214285Y-27678571D01*
X61571428Y-27178571D02*
X61571428Y-28464285D01*
X61499999Y-28607142D01*
X61357142Y-28678571D01*
X61214285Y-28678571D01*
X59642857Y-28250000D02*
X58928571Y-28250000D01*
X59785714Y-28678571D02*
X59285714Y-27178571D01*
X58785714Y-28678571D01*
X58285714Y-28678571D02*
X58285714Y-27678571D01*
X58285714Y-27821428D02*
X58214285Y-27750000D01*
X58071428Y-27678571D01*
X57857142Y-27678571D01*
X57714285Y-27750000D01*
X57642857Y-27892857D01*
X57642857Y-28678571D01*
X57642857Y-27892857D02*
X57571428Y-27750000D01*
X57428571Y-27678571D01*
X57214285Y-27678571D01*
X57071428Y-27750000D01*
X56999999Y-27892857D01*
X56999999Y-28678571D01*
X56285714Y-27678571D02*
X56285714Y-29178571D01*
X56285714Y-27750000D02*
X56142857Y-27678571D01*
X55857142Y-27678571D01*
X55714285Y-27750000D01*
X55642857Y-27821428D01*
X55571428Y-27964285D01*
X55571428Y-28392857D01*
X55642857Y-28535714D01*
X55714285Y-28607142D01*
X55857142Y-28678571D01*
X56142857Y-28678571D01*
X56285714Y-28607142D01*
X61571428Y-30228571D02*
X61214285Y-31228571D01*
X60857142Y-30228571D01*
X59500000Y-31228571D02*
X60357142Y-31228571D01*
X59928571Y-31228571D02*
X59928571Y-29728571D01*
X60071428Y-29942857D01*
X60214285Y-30085714D01*
X60357142Y-30157142D01*
D11*
G04 #@! TO.P,D1,1*
G04 #@! TO.N,Net-(D1-Pad1)*
X44005000Y-27495000D03*
D12*
G04 #@! TO.P,D1,2*
G04 #@! TO.N,+5V*
X33845000Y-27495000D03*
G04 #@! TD*
D13*
G04 #@! TO.P,J2,1*
G04 #@! TO.N,GND*
X24955000Y-35115000D03*
G04 #@! TD*
D14*
G04 #@! TO.P,LS1,1*
G04 #@! TO.N,Net-(C1-Pad1)*
X24955000Y-47815000D03*
D15*
G04 #@! TO.P,LS1,2*
G04 #@! TO.N,GND*
X24955000Y-44005000D03*
G04 #@! TD*
D16*
G04 #@! TO.P,R1,1*
G04 #@! TO.N,Net-(C2-Pad2)*
X54165000Y-51625000D03*
D17*
G04 #@! TO.P,R1,2*
G04 #@! TO.N,GND*
X54165000Y-66865000D03*
G04 #@! TD*
D18*
G04 #@! TO.P,RV1,3*
G04 #@! TO.N,GND*
X42735000Y-66785000D03*
G04 #@! TO.P,RV1,2*
G04 #@! TO.N,Net-(RV1-Pad2)*
X42735000Y-61785000D03*
G04 #@! TO.P,RV1,1*
G04 #@! TO.N,Net-(J5-Pad1)*
X42735000Y-56785000D03*
G04 #@! TD*
D19*
G04 #@! TO.P,U1,1*
G04 #@! TO.N,Net-(U1-Pad1)*
X38925000Y-45275000D03*
D20*
G04 #@! TO.P,U1,5*
G04 #@! TO.N,Net-(C1-Pad2)*
X46545000Y-37655000D03*
G04 #@! TO.P,U1,2*
G04 #@! TO.N,GND*
X41465000Y-45275000D03*
G04 #@! TO.P,U1,6*
G04 #@! TO.N,Net-(D1-Pad1)*
X44005000Y-37655000D03*
G04 #@! TO.P,U1,3*
G04 #@! TO.N,Net-(RV1-Pad2)*
X44005000Y-45275000D03*
G04 #@! TO.P,U1,7*
G04 #@! TO.N,Net-(U1-Pad7)*
X41465000Y-37655000D03*
G04 #@! TO.P,U1,4*
G04 #@! TO.N,GND*
X46545000Y-45275000D03*
G04 #@! TO.P,U1,8*
G04 #@! TO.N,Net-(U1-Pad8)*
X38925000Y-37655000D03*
G04 #@! TD*
D21*
G04 #@! TO.P,J5,1*
G04 #@! TO.N,Net-(J5-Pad1)*
X82000000Y-25500000D03*
G04 #@! TD*
G04 #@! TO.P,J6,1*
G04 #@! TO.N,GND*
X82000000Y-69500000D03*
G04 #@! TD*
D22*
G04 #@! TO.P,C1,1*
G04 #@! TO.N,Net-(C1-Pad1)*
X57975000Y-42655000D03*
D23*
G04 #@! TO.P,C1,2*
G04 #@! TO.N,Net-(C1-Pad2)*
X57975000Y-37655000D03*
G04 #@! TD*
D16*
G04 #@! TO.P,C2,1*
G04 #@! TO.N,Net-(C1-Pad2)*
X68135000Y-37655000D03*
G04 #@! TO.P,C2,2*
G04 #@! TO.N,Net-(C2-Pad2)*
X68135000Y-42655000D03*
G04 #@! TD*
D13*
G04 #@! TO.P,J1,1*
G04 #@! TO.N,+5V*
X24955000Y-27495000D03*
G04 #@! TD*
D24*
G04 #@! TO.N,Net-(C1-Pad1)*
X55975000Y-42655000D02*
X54785000Y-41465000D01*
X54785000Y-41465000D02*
X33845000Y-41465000D01*
X57975000Y-42655000D02*
X55975000Y-42655000D01*
X27495000Y-47815000D02*
X24955000Y-47815000D01*
X33845000Y-41465000D02*
X27495000Y-47815000D01*
G04 #@! TO.N,Net-(C1-Pad2)*
X46545000Y-37655000D02*
X57975000Y-37655000D01*
X57975000Y-37655000D02*
X68135000Y-37655000D01*
G04 #@! TO.N,Net-(D1-Pad1)*
X44005000Y-27495000D02*
X44005000Y-37655000D01*
G04 #@! TO.N,+5V*
X24955000Y-27495000D02*
X33845000Y-27495000D01*
G04 #@! TO.N,GND*
X24955000Y-35115000D02*
X24955000Y-44005000D01*
X24955000Y-44005000D02*
X23685000Y-44005000D01*
X44745000Y-43075000D02*
X46545000Y-44875000D01*
X43265000Y-43075000D02*
X44745000Y-43075000D01*
X41465000Y-44875000D02*
X43265000Y-43075000D01*
X46545000Y-44875000D02*
X46545000Y-45275000D01*
X41465000Y-45275000D02*
X41465000Y-44875000D01*
X42815000Y-66865000D02*
X42735000Y-66785000D01*
X54165000Y-66865000D02*
X42815000Y-66865000D01*
X41465000Y-46545000D02*
X37655000Y-50355000D01*
X41465000Y-45275000D02*
X41465000Y-46545000D01*
X36385000Y-51625000D02*
X37655000Y-50355000D01*
X22415000Y-51625000D02*
X36385000Y-51625000D01*
X21145000Y-45693864D02*
X21145000Y-50355000D01*
X21145000Y-50355000D02*
X22415000Y-51625000D01*
X22833864Y-44005000D02*
X21145000Y-45693864D01*
X24955000Y-44005000D02*
X22833864Y-44005000D01*
X36385000Y-60435000D02*
X36385000Y-51625000D01*
X42735000Y-66785000D02*
X36385000Y-60435000D01*
X56800000Y-69500000D02*
X82000000Y-69500000D01*
X54165000Y-66865000D02*
X56800000Y-69500000D01*
G04 #@! TO.N,Net-(RV1-Pad2)*
X41565001Y-60615001D02*
X42735000Y-61785000D01*
X40195000Y-59245000D02*
X41565001Y-60615001D01*
X40195000Y-55435000D02*
X40195000Y-59245000D01*
X44005000Y-51625000D02*
X40195000Y-55435000D01*
X44005000Y-45275000D02*
X44005000Y-51625000D01*
G04 #@! TO.N,Net-(C2-Pad2)*
X63135000Y-42655000D02*
X54165000Y-51625000D01*
X68135000Y-42655000D02*
X63135000Y-42655000D01*
G04 #@! TO.N,Net-(J5-Pad1)*
X82000000Y-35500000D02*
X82000000Y-25500000D01*
X59545001Y-57954999D02*
X82000000Y-35500000D01*
X43904999Y-57954999D02*
X59545001Y-57954999D01*
X42735000Y-56785000D02*
X43904999Y-57954999D01*
G04 #@! TD*
M02*
