G04 #@! TF.GenerationSoftware,KiCad,Pcbnew,(5.0.1-3-g963ef8bb5)*
G04 #@! TF.CreationDate,2018-11-12T20:25:43-08:00*
G04 #@! TF.ProjectId,ServoCreature,536572766F43726561747572652E6B69,rev?*
G04 #@! TF.SameCoordinates,Original*
G04 #@! TF.FileFunction,Copper,L2,Bot,Signal*
G04 #@! TF.FilePolarity,Positive*
%FSLAX46Y46*%
G04 Gerber Fmt 4.6, Leading zero omitted, Abs format (unit mm)*
G04 Created by KiCad (PCBNEW (5.0.1-3-g963ef8bb5)) date Monday, November 12, 2018 at 08:25:43 pm*
%MOMM*%
%LPD*%
G01*
G04 APERTURE LIST*
G04 #@! TA.AperFunction,NonConductor*
%ADD10C,0.150000*%
G04 #@! TD*
G04 #@! TA.AperFunction,NonConductor*
%ADD11C,0.500000*%
G04 #@! TD*
G04 #@! TA.AperFunction,ComponentPad*
%ADD12R,2.200000X2.200000*%
G04 #@! TD*
G04 #@! TA.AperFunction,ComponentPad*
%ADD13O,2.200000X2.200000*%
G04 #@! TD*
G04 #@! TA.AperFunction,ComponentPad*
%ADD14C,8.600000*%
G04 #@! TD*
G04 #@! TA.AperFunction,ComponentPad*
%ADD15C,3.500120*%
G04 #@! TD*
G04 #@! TA.AperFunction,ComponentPad*
%ADD16R,2.999740X2.999740*%
G04 #@! TD*
G04 #@! TA.AperFunction,ComponentPad*
%ADD17C,2.999740*%
G04 #@! TD*
G04 #@! TA.AperFunction,Conductor*
%ADD18C,1.000000*%
G04 #@! TD*
G04 APERTURE END LIST*
D10*
X120000000Y-20390000D02*
X120000000Y-75000000D01*
X20000000Y-20390000D02*
X120000000Y-20390000D01*
X20000000Y-20390000D02*
X20000000Y-75000000D01*
X20000000Y-75000000D02*
X120000000Y-75000000D01*
D11*
X116357142Y-42357142D02*
X116357142Y-39357142D01*
X115357142Y-41500000D01*
X114357142Y-39357142D01*
X114357142Y-42357142D01*
X111642857Y-42357142D02*
X111642857Y-40785714D01*
X111785714Y-40500000D01*
X112071428Y-40357142D01*
X112642857Y-40357142D01*
X112928571Y-40500000D01*
X111642857Y-42214285D02*
X111928571Y-42357142D01*
X112642857Y-42357142D01*
X112928571Y-42214285D01*
X113071428Y-41928571D01*
X113071428Y-41642857D01*
X112928571Y-41357142D01*
X112642857Y-41214285D01*
X111928571Y-41214285D01*
X111642857Y-41071428D01*
X110214285Y-42357142D02*
X110214285Y-39357142D01*
X109928571Y-41214285D02*
X109071428Y-42357142D01*
X109071428Y-40357142D02*
X110214285Y-41500000D01*
X106642857Y-42214285D02*
X106928571Y-42357142D01*
X107500000Y-42357142D01*
X107785714Y-42214285D01*
X107928571Y-41928571D01*
X107928571Y-40785714D01*
X107785714Y-40500000D01*
X107500000Y-40357142D01*
X106928571Y-40357142D01*
X106642857Y-40500000D01*
X106500000Y-40785714D01*
X106500000Y-41071428D01*
X107928571Y-41357142D01*
X105214285Y-42357142D02*
X105214285Y-39357142D01*
X104214285Y-40357142D02*
X103071428Y-40357142D01*
X103785714Y-39357142D02*
X103785714Y-41928571D01*
X103642857Y-42214285D01*
X103357142Y-42357142D01*
X103071428Y-42357142D01*
X102357142Y-39357142D02*
X100357142Y-39357142D01*
X102357142Y-42357142D01*
X100357142Y-42357142D01*
X98785714Y-42357142D02*
X99071428Y-42214285D01*
X99214285Y-42071428D01*
X99357142Y-41785714D01*
X99357142Y-40928571D01*
X99214285Y-40642857D01*
X99071428Y-40500000D01*
X98785714Y-40357142D01*
X98357142Y-40357142D01*
X98071428Y-40500000D01*
X97928571Y-40642857D01*
X97785714Y-40928571D01*
X97785714Y-41785714D01*
X97928571Y-42071428D01*
X98071428Y-42214285D01*
X98357142Y-42357142D01*
X98785714Y-42357142D01*
X96500000Y-40357142D02*
X96500000Y-42357142D01*
X96500000Y-40642857D02*
X96357142Y-40500000D01*
X96071428Y-40357142D01*
X95642857Y-40357142D01*
X95357142Y-40500000D01*
X95214285Y-40785714D01*
X95214285Y-42357142D01*
X92642857Y-42214285D02*
X92928571Y-42357142D01*
X93500000Y-42357142D01*
X93785714Y-42214285D01*
X93928571Y-41928571D01*
X93928571Y-40785714D01*
X93785714Y-40500000D01*
X93500000Y-40357142D01*
X92928571Y-40357142D01*
X92642857Y-40500000D01*
X92500000Y-40785714D01*
X92500000Y-41071428D01*
X93928571Y-41357142D01*
X108428571Y-45357142D02*
X108428571Y-48357142D01*
X107000000Y-46928571D02*
X106857142Y-47214285D01*
X106571428Y-47357142D01*
X108428571Y-46928571D02*
X108285714Y-47214285D01*
X108000000Y-47357142D01*
X107428571Y-47357142D01*
X107142857Y-47214285D01*
X107000000Y-46928571D01*
X107000000Y-45357142D01*
X104285714Y-45785714D02*
X103857142Y-45928571D01*
X103714285Y-46071428D01*
X103571428Y-46357142D01*
X103571428Y-46785714D01*
X103714285Y-47071428D01*
X103857142Y-47214285D01*
X104142857Y-47357142D01*
X105285714Y-47357142D01*
X105285714Y-44357142D01*
X104285714Y-44357142D01*
X104000000Y-44500000D01*
X103857142Y-44642857D01*
X103714285Y-44928571D01*
X103714285Y-45214285D01*
X103857142Y-45500000D01*
X104000000Y-45642857D01*
X104285714Y-45785714D01*
X105285714Y-45785714D01*
X102285714Y-47357142D02*
X102285714Y-45357142D01*
X102285714Y-44357142D02*
X102428571Y-44500000D01*
X102285714Y-44642857D01*
X102142857Y-44500000D01*
X102285714Y-44357142D01*
X102285714Y-44642857D01*
X101285714Y-45357142D02*
X100142857Y-45357142D01*
X100857142Y-44357142D02*
X100857142Y-46928571D01*
X100714285Y-47214285D01*
X100428571Y-47357142D01*
X100142857Y-47357142D01*
X110071428Y-52214285D02*
X109642857Y-52357142D01*
X108928571Y-52357142D01*
X108642857Y-52214285D01*
X108500000Y-52071428D01*
X108357142Y-51785714D01*
X108357142Y-51500000D01*
X108500000Y-51214285D01*
X108642857Y-51071428D01*
X108928571Y-50928571D01*
X109500000Y-50785714D01*
X109785714Y-50642857D01*
X109928571Y-50500000D01*
X110071428Y-50214285D01*
X110071428Y-49928571D01*
X109928571Y-49642857D01*
X109785714Y-49500000D01*
X109500000Y-49357142D01*
X108785714Y-49357142D01*
X108357142Y-49500000D01*
X105928571Y-52214285D02*
X106214285Y-52357142D01*
X106785714Y-52357142D01*
X107071428Y-52214285D01*
X107214285Y-51928571D01*
X107214285Y-50785714D01*
X107071428Y-50500000D01*
X106785714Y-50357142D01*
X106214285Y-50357142D01*
X105928571Y-50500000D01*
X105785714Y-50785714D01*
X105785714Y-51071428D01*
X107214285Y-51357142D01*
X104500000Y-52357142D02*
X104500000Y-50357142D01*
X104500000Y-50928571D02*
X104357142Y-50642857D01*
X104214285Y-50500000D01*
X103928571Y-50357142D01*
X103642857Y-50357142D01*
X102928571Y-50357142D02*
X102214285Y-52357142D01*
X101500000Y-50357142D01*
X99928571Y-52357142D02*
X100214285Y-52214285D01*
X100357142Y-52071428D01*
X100500000Y-51785714D01*
X100500000Y-50928571D01*
X100357142Y-50642857D01*
X100214285Y-50500000D01*
X99928571Y-50357142D01*
X99500000Y-50357142D01*
X99214285Y-50500000D01*
X99071428Y-50642857D01*
X98928571Y-50928571D01*
X98928571Y-51785714D01*
X99071428Y-52071428D01*
X99214285Y-52214285D01*
X99500000Y-52357142D01*
X99928571Y-52357142D01*
X106642857Y-55357142D02*
X105928571Y-57357142D01*
X105214285Y-55357142D01*
X102500000Y-57357142D02*
X104214285Y-57357142D01*
X103357142Y-57357142D02*
X103357142Y-54357142D01*
X103642857Y-54785714D01*
X103928571Y-55071428D01*
X104214285Y-55214285D01*
D12*
G04 #@! TO.P,D1,1*
G04 #@! TO.N,Net-(D1-Pad1)*
X45000000Y-24000000D03*
D13*
G04 #@! TO.P,D1,2*
G04 #@! TO.N,+5V*
X34840000Y-24000000D03*
G04 #@! TD*
D14*
G04 #@! TO.P,bitPinGnd1,1*
G04 #@! TO.N,GND*
X82000000Y-70000000D03*
G04 #@! TD*
D15*
G04 #@! TO.P,5VBat1,1*
G04 #@! TO.N,+5V*
X26000000Y-24000000D03*
G04 #@! TD*
G04 #@! TO.P,BatGnd1,1*
G04 #@! TO.N,GND*
X26000000Y-30500000D03*
G04 #@! TD*
D14*
G04 #@! TO.P,bitPin0-PWM1,1*
G04 #@! TO.N,Net-(J1-Pad3)*
X82000000Y-26000000D03*
G04 #@! TD*
D16*
G04 #@! TO.P,J1,1*
G04 #@! TO.N,GND*
X26000000Y-41690000D03*
D17*
G04 #@! TO.P,J1,2*
G04 #@! TO.N,Net-(D1-Pad1)*
X26000000Y-45500000D03*
G04 #@! TO.P,J1,3*
G04 #@! TO.N,Net-(J1-Pad3)*
X26000000Y-49310000D03*
G04 #@! TD*
D18*
G04 #@! TO.N,Net-(D1-Pad1)*
X30000000Y-45500000D02*
X26000000Y-45500000D01*
X45000000Y-30500000D02*
X30000000Y-45500000D01*
X45000000Y-24000000D02*
X45000000Y-30500000D01*
G04 #@! TO.N,+5V*
X26000000Y-24000000D02*
X34840000Y-24000000D01*
G04 #@! TO.N,GND*
X41000000Y-70000000D02*
X75918882Y-70000000D01*
X75918882Y-70000000D02*
X82000000Y-70000000D01*
X22500000Y-51500000D02*
X41000000Y-70000000D01*
X22500000Y-42690130D02*
X22500000Y-51500000D01*
X23500130Y-41690000D02*
X22500000Y-42690130D01*
X26000000Y-41690000D02*
X23500130Y-41690000D01*
X26000000Y-32974958D02*
X26000000Y-41690000D01*
X26000000Y-30500000D02*
X26000000Y-32974958D01*
G04 #@! TO.N,Net-(J1-Pad3)*
X32190000Y-49310000D02*
X26000000Y-49310000D01*
X55500000Y-26000000D02*
X32190000Y-49310000D01*
X82000000Y-26000000D02*
X55500000Y-26000000D01*
G04 #@! TD*
M02*
