G04 #@! TF.GenerationSoftware,KiCad,Pcbnew,(5.0.1-3-g963ef8bb5)*
G04 #@! TF.CreationDate,2018-11-12T18:29:08-08:00*
G04 #@! TF.ProjectId,DCMotorCreature,44434D6F746F7243726561747572652E,rev?*
G04 #@! TF.SameCoordinates,Original*
G04 #@! TF.FileFunction,Copper,L2,Bot,Signal*
G04 #@! TF.FilePolarity,Positive*
%FSLAX46Y46*%
G04 Gerber Fmt 4.6, Leading zero omitted, Abs format (unit mm)*
G04 Created by KiCad (PCBNEW (5.0.1-3-g963ef8bb5)) date Monday, November 12, 2018 at 06:29:08 pm*
%MOMM*%
%LPD*%
G01*
G04 APERTURE LIST*
G04 #@! TA.AperFunction,NonConductor*
%ADD10C,0.500000*%
G04 #@! TD*
G04 #@! TA.AperFunction,ComponentPad*
%ADD11R,2.200000X2.200000*%
G04 #@! TD*
G04 #@! TA.AperFunction,ComponentPad*
%ADD12O,2.200000X2.200000*%
G04 #@! TD*
G04 #@! TA.AperFunction,ComponentPad*
%ADD13C,8.600000*%
G04 #@! TD*
G04 #@! TA.AperFunction,ComponentPad*
%ADD14R,1.600000X1.600000*%
G04 #@! TD*
G04 #@! TA.AperFunction,ComponentPad*
%ADD15O,1.600000X1.600000*%
G04 #@! TD*
G04 #@! TA.AperFunction,ComponentPad*
%ADD16R,4.500880X4.500880*%
G04 #@! TD*
G04 #@! TA.AperFunction,ComponentPad*
%ADD17C,4.500880*%
G04 #@! TD*
G04 #@! TA.AperFunction,ComponentPad*
%ADD18C,3.500120*%
G04 #@! TD*
G04 #@! TA.AperFunction,ViaPad*
%ADD19C,2.500000*%
G04 #@! TD*
G04 #@! TA.AperFunction,Conductor*
%ADD20C,1.000000*%
G04 #@! TD*
G04 APERTURE END LIST*
D10*
X116357142Y-42357142D02*
X116357142Y-39357142D01*
X115357142Y-41500000D01*
X114357142Y-39357142D01*
X114357142Y-42357142D01*
X111642857Y-42357142D02*
X111642857Y-40785714D01*
X111785714Y-40500000D01*
X112071428Y-40357142D01*
X112642857Y-40357142D01*
X112928571Y-40500000D01*
X111642857Y-42214285D02*
X111928571Y-42357142D01*
X112642857Y-42357142D01*
X112928571Y-42214285D01*
X113071428Y-41928571D01*
X113071428Y-41642857D01*
X112928571Y-41357142D01*
X112642857Y-41214285D01*
X111928571Y-41214285D01*
X111642857Y-41071428D01*
X110214285Y-42357142D02*
X110214285Y-39357142D01*
X109928571Y-41214285D02*
X109071428Y-42357142D01*
X109071428Y-40357142D02*
X110214285Y-41500000D01*
X106642857Y-42214285D02*
X106928571Y-42357142D01*
X107500000Y-42357142D01*
X107785714Y-42214285D01*
X107928571Y-41928571D01*
X107928571Y-40785714D01*
X107785714Y-40500000D01*
X107500000Y-40357142D01*
X106928571Y-40357142D01*
X106642857Y-40500000D01*
X106500000Y-40785714D01*
X106500000Y-41071428D01*
X107928571Y-41357142D01*
X105214285Y-42357142D02*
X105214285Y-39357142D01*
X104214285Y-40357142D02*
X103071428Y-40357142D01*
X103785714Y-39357142D02*
X103785714Y-41928571D01*
X103642857Y-42214285D01*
X103357142Y-42357142D01*
X103071428Y-42357142D01*
X102357142Y-39357142D02*
X100357142Y-39357142D01*
X102357142Y-42357142D01*
X100357142Y-42357142D01*
X98785714Y-42357142D02*
X99071428Y-42214285D01*
X99214285Y-42071428D01*
X99357142Y-41785714D01*
X99357142Y-40928571D01*
X99214285Y-40642857D01*
X99071428Y-40500000D01*
X98785714Y-40357142D01*
X98357142Y-40357142D01*
X98071428Y-40500000D01*
X97928571Y-40642857D01*
X97785714Y-40928571D01*
X97785714Y-41785714D01*
X97928571Y-42071428D01*
X98071428Y-42214285D01*
X98357142Y-42357142D01*
X98785714Y-42357142D01*
X96500000Y-40357142D02*
X96500000Y-42357142D01*
X96500000Y-40642857D02*
X96357142Y-40500000D01*
X96071428Y-40357142D01*
X95642857Y-40357142D01*
X95357142Y-40500000D01*
X95214285Y-40785714D01*
X95214285Y-42357142D01*
X92642857Y-42214285D02*
X92928571Y-42357142D01*
X93500000Y-42357142D01*
X93785714Y-42214285D01*
X93928571Y-41928571D01*
X93928571Y-40785714D01*
X93785714Y-40500000D01*
X93500000Y-40357142D01*
X92928571Y-40357142D01*
X92642857Y-40500000D01*
X92500000Y-40785714D01*
X92500000Y-41071428D01*
X93928571Y-41357142D01*
X108428571Y-45357142D02*
X108428571Y-48357142D01*
X107000000Y-46928571D02*
X106857142Y-47214285D01*
X106571428Y-47357142D01*
X108428571Y-46928571D02*
X108285714Y-47214285D01*
X108000000Y-47357142D01*
X107428571Y-47357142D01*
X107142857Y-47214285D01*
X107000000Y-46928571D01*
X107000000Y-45357142D01*
X104285714Y-45785714D02*
X103857142Y-45928571D01*
X103714285Y-46071428D01*
X103571428Y-46357142D01*
X103571428Y-46785714D01*
X103714285Y-47071428D01*
X103857142Y-47214285D01*
X104142857Y-47357142D01*
X105285714Y-47357142D01*
X105285714Y-44357142D01*
X104285714Y-44357142D01*
X104000000Y-44500000D01*
X103857142Y-44642857D01*
X103714285Y-44928571D01*
X103714285Y-45214285D01*
X103857142Y-45500000D01*
X104000000Y-45642857D01*
X104285714Y-45785714D01*
X105285714Y-45785714D01*
X102285714Y-47357142D02*
X102285714Y-45357142D01*
X102285714Y-44357142D02*
X102428571Y-44500000D01*
X102285714Y-44642857D01*
X102142857Y-44500000D01*
X102285714Y-44357142D01*
X102285714Y-44642857D01*
X101285714Y-45357142D02*
X100142857Y-45357142D01*
X100857142Y-44357142D02*
X100857142Y-46928571D01*
X100714285Y-47214285D01*
X100428571Y-47357142D01*
X100142857Y-47357142D01*
X114357142Y-52357142D02*
X114357142Y-49357142D01*
X114357142Y-50785714D02*
X112642857Y-50785714D01*
X112642857Y-52357142D02*
X112642857Y-49357142D01*
X111214285Y-51214285D02*
X108928571Y-51214285D01*
X106500000Y-50785714D02*
X106071428Y-50928571D01*
X105928571Y-51071428D01*
X105785714Y-51357142D01*
X105785714Y-51785714D01*
X105928571Y-52071428D01*
X106071428Y-52214285D01*
X106357142Y-52357142D01*
X107500000Y-52357142D01*
X107500000Y-49357142D01*
X106500000Y-49357142D01*
X106214285Y-49500000D01*
X106071428Y-49642857D01*
X105928571Y-49928571D01*
X105928571Y-50214285D01*
X106071428Y-50500000D01*
X106214285Y-50642857D01*
X106500000Y-50785714D01*
X107500000Y-50785714D01*
X104500000Y-52357142D02*
X104500000Y-50357142D01*
X104500000Y-50928571D02*
X104357142Y-50642857D01*
X104214285Y-50500000D01*
X103928571Y-50357142D01*
X103642857Y-50357142D01*
X102642857Y-52357142D02*
X102642857Y-50357142D01*
X102642857Y-49357142D02*
X102785714Y-49500000D01*
X102642857Y-49642857D01*
X102500000Y-49500000D01*
X102642857Y-49357142D01*
X102642857Y-49642857D01*
X99928571Y-52357142D02*
X99928571Y-49357142D01*
X99928571Y-52214285D02*
X100214285Y-52357142D01*
X100785714Y-52357142D01*
X101071428Y-52214285D01*
X101214285Y-52071428D01*
X101357142Y-51785714D01*
X101357142Y-50928571D01*
X101214285Y-50642857D01*
X101071428Y-50500000D01*
X100785714Y-50357142D01*
X100214285Y-50357142D01*
X99928571Y-50500000D01*
X97214285Y-50357142D02*
X97214285Y-52785714D01*
X97357142Y-53071428D01*
X97500000Y-53214285D01*
X97785714Y-53357142D01*
X98214285Y-53357142D01*
X98500000Y-53214285D01*
X97214285Y-52214285D02*
X97500000Y-52357142D01*
X98071428Y-52357142D01*
X98357142Y-52214285D01*
X98500000Y-52071428D01*
X98642857Y-51785714D01*
X98642857Y-50928571D01*
X98500000Y-50642857D01*
X98357142Y-50500000D01*
X98071428Y-50357142D01*
X97500000Y-50357142D01*
X97214285Y-50500000D01*
X94642857Y-52214285D02*
X94928571Y-52357142D01*
X95500000Y-52357142D01*
X95785714Y-52214285D01*
X95928571Y-51928571D01*
X95928571Y-50785714D01*
X95785714Y-50500000D01*
X95500000Y-50357142D01*
X94928571Y-50357142D01*
X94642857Y-50500000D01*
X94500000Y-50785714D01*
X94500000Y-51071428D01*
X95928571Y-51357142D01*
X106642857Y-55357142D02*
X105928571Y-57357142D01*
X105214285Y-55357142D01*
X102500000Y-57357142D02*
X104214285Y-57357142D01*
X103357142Y-57357142D02*
X103357142Y-54357142D01*
X103642857Y-54785714D01*
X103928571Y-55071428D01*
X104214285Y-55214285D01*
D11*
G04 #@! TO.P,D1,1*
G04 #@! TO.N,Net-(D1-Pad1)*
X45000000Y-24000000D03*
D12*
G04 #@! TO.P,D1,2*
G04 #@! TO.N,+5V*
X34840000Y-24000000D03*
G04 #@! TD*
D13*
G04 #@! TO.P,bitPin0-12Enable1,1*
G04 #@! TO.N,Net-(U1-Pad1)*
X82000000Y-26000000D03*
G04 #@! TD*
G04 #@! TO.P,bitPin1-1A1,1*
G04 #@! TO.N,Net-(U1-Pad2)*
X82000000Y-36000000D03*
G04 #@! TD*
G04 #@! TO.P,bitPin2-2A1,1*
G04 #@! TO.N,Net-(U1-Pad7)*
X82000000Y-47500000D03*
G04 #@! TD*
G04 #@! TO.P,bitPinGnd1,1*
G04 #@! TO.N,GND*
X82000000Y-70000000D03*
G04 #@! TD*
D12*
G04 #@! TO.P,D2,2*
G04 #@! TO.N,Net-(D2-Pad2)*
X29500000Y-56160000D03*
D11*
G04 #@! TO.P,D2,1*
G04 #@! TO.N,+5V*
X29500000Y-46000000D03*
G04 #@! TD*
G04 #@! TO.P,D3,1*
G04 #@! TO.N,+5V*
X51000000Y-46000000D03*
D12*
G04 #@! TO.P,D3,2*
G04 #@! TO.N,Net-(D3-Pad2)*
X51000000Y-56160000D03*
G04 #@! TD*
D11*
G04 #@! TO.P,D4,1*
G04 #@! TO.N,Net-(D2-Pad2)*
X29500000Y-62000000D03*
D12*
G04 #@! TO.P,D4,2*
G04 #@! TO.N,GND*
X29500000Y-72160000D03*
G04 #@! TD*
G04 #@! TO.P,D5,2*
G04 #@! TO.N,GND*
X51000000Y-72160000D03*
D11*
G04 #@! TO.P,D5,1*
G04 #@! TO.N,Net-(D3-Pad2)*
X51000000Y-62000000D03*
G04 #@! TD*
D14*
G04 #@! TO.P,U1,1*
G04 #@! TO.N,Net-(U1-Pad1)*
X35000000Y-37500000D03*
D15*
G04 #@! TO.P,U1,9*
G04 #@! TO.N,GND*
X52780000Y-29880000D03*
G04 #@! TO.P,U1,2*
G04 #@! TO.N,Net-(U1-Pad2)*
X37540000Y-37500000D03*
G04 #@! TO.P,U1,10*
G04 #@! TO.N,N/C*
X50240000Y-29880000D03*
G04 #@! TO.P,U1,3*
G04 #@! TO.N,Net-(D2-Pad2)*
X40080000Y-37500000D03*
G04 #@! TO.P,U1,11*
G04 #@! TO.N,N/C*
X47700000Y-29880000D03*
G04 #@! TO.P,U1,4*
G04 #@! TO.N,GND*
X42620000Y-37500000D03*
G04 #@! TO.P,U1,12*
X45160000Y-29880000D03*
G04 #@! TO.P,U1,5*
X45160000Y-37500000D03*
G04 #@! TO.P,U1,13*
X42620000Y-29880000D03*
G04 #@! TO.P,U1,6*
G04 #@! TO.N,Net-(D3-Pad2)*
X47700000Y-37500000D03*
G04 #@! TO.P,U1,14*
G04 #@! TO.N,N/C*
X40080000Y-29880000D03*
G04 #@! TO.P,U1,7*
G04 #@! TO.N,Net-(U1-Pad7)*
X50240000Y-37500000D03*
G04 #@! TO.P,U1,15*
G04 #@! TO.N,N/C*
X37540000Y-29880000D03*
G04 #@! TO.P,U1,8*
G04 #@! TO.N,Net-(D1-Pad1)*
X52780000Y-37500000D03*
G04 #@! TO.P,U1,16*
X35000000Y-29880000D03*
G04 #@! TD*
D16*
G04 #@! TO.P,M1,1*
G04 #@! TO.N,Net-(D2-Pad2)*
X36650000Y-59000000D03*
D17*
G04 #@! TO.P,M1,2*
G04 #@! TO.N,Net-(D3-Pad2)*
X43000000Y-59000000D03*
G04 #@! TD*
D18*
G04 #@! TO.P,5VBat1,1*
G04 #@! TO.N,+5V*
X26000000Y-24000000D03*
G04 #@! TD*
G04 #@! TO.P,BatGnd1,1*
G04 #@! TO.N,GND*
X26000000Y-30500000D03*
G04 #@! TD*
D19*
G04 #@! TO.N,GND*
X26000000Y-41500000D03*
X26000000Y-51000000D03*
G04 #@! TO.N,Net-(D2-Pad2)*
X40000000Y-42500000D03*
X40000000Y-51500000D03*
G04 #@! TO.N,Net-(D3-Pad2)*
X43500000Y-41500000D03*
X43500000Y-51500000D03*
G04 #@! TD*
D20*
G04 #@! TO.N,Net-(D1-Pad1)*
X35000000Y-28000000D02*
X35000000Y-29880000D01*
X35500000Y-27500000D02*
X35000000Y-28000000D01*
X45000000Y-27500000D02*
X35500000Y-27500000D01*
X45000000Y-24000000D02*
X45000000Y-27500000D01*
X45000000Y-27500000D02*
X54500000Y-27500000D01*
X54500000Y-27500000D02*
X56000000Y-29000000D01*
X56000000Y-34280000D02*
X52780000Y-37500000D01*
X56000000Y-29000000D02*
X56000000Y-34280000D01*
G04 #@! TO.N,+5V*
X26000000Y-24000000D02*
X35840000Y-24000000D01*
X26000000Y-26474958D02*
X22500000Y-29974958D01*
X26000000Y-24000000D02*
X26000000Y-26474958D01*
X22500000Y-29974958D02*
X22500000Y-45000000D01*
X23500000Y-46000000D02*
X29500000Y-46000000D01*
X22500000Y-45000000D02*
X23500000Y-46000000D01*
X50500000Y-46000000D02*
X51000000Y-46500000D01*
X48000000Y-49000000D02*
X51000000Y-46000000D01*
X32500000Y-49000000D02*
X48000000Y-49000000D01*
X29500000Y-46000000D02*
X32500000Y-49000000D01*
G04 #@! TO.N,GND*
X39840000Y-72160000D02*
X29500000Y-72160000D01*
X40160000Y-72160000D02*
X40000000Y-72000000D01*
X51000000Y-72160000D02*
X40160000Y-72160000D01*
X26000000Y-68660000D02*
X29500000Y-72160000D01*
X26000000Y-51000000D02*
X26000000Y-68660000D01*
X26000000Y-34000000D02*
X42500000Y-34000000D01*
X26000000Y-30500000D02*
X26000000Y-34000000D01*
X26000000Y-34000000D02*
X26000000Y-41500000D01*
X42500000Y-34000000D02*
X42620000Y-33880000D01*
X42620000Y-29880000D02*
X45160000Y-29880000D01*
X42620000Y-37500000D02*
X45160000Y-37500000D01*
X42620000Y-34000000D02*
X45160000Y-34000000D01*
X45160000Y-34000000D02*
X45160000Y-37500000D01*
X42620000Y-37500000D02*
X42620000Y-34000000D01*
X45160000Y-29880000D02*
X45160000Y-34000000D01*
X42620000Y-34000000D02*
X42620000Y-29880000D01*
X79840000Y-72160000D02*
X82000000Y-70000000D01*
X53160000Y-70000000D02*
X51000000Y-72160000D01*
X82000000Y-70000000D02*
X53160000Y-70000000D01*
G04 #@! TO.N,Net-(U1-Pad1)*
X35000000Y-38500000D02*
X35000000Y-37500000D01*
X35500000Y-47000000D02*
X34000000Y-45500000D01*
X34000000Y-45500000D02*
X34000000Y-39500000D01*
X45500000Y-47000000D02*
X35500000Y-47000000D01*
X90000000Y-34000000D02*
X90000000Y-51000000D01*
X49000000Y-43500000D02*
X45500000Y-47000000D01*
X90000000Y-51000000D02*
X85500000Y-55500000D01*
X34000000Y-39500000D02*
X35000000Y-38500000D01*
X85500000Y-55500000D02*
X66500000Y-55500000D01*
X54500000Y-43500000D02*
X49000000Y-43500000D01*
X66500000Y-55500000D02*
X54500000Y-43500000D01*
X82000000Y-26000000D02*
X90000000Y-34000000D01*
G04 #@! TO.N,Net-(U1-Pad7)*
X57000000Y-39500000D02*
X69000000Y-51500000D01*
X78000000Y-51500000D02*
X82000000Y-47500000D01*
X50240000Y-39500000D02*
X57000000Y-39500000D01*
X69000000Y-51500000D02*
X78000000Y-51500000D01*
X50240000Y-37500000D02*
X50240000Y-39500000D01*
G04 #@! TO.N,Net-(U1-Pad2)*
X37000000Y-45000000D02*
X36000000Y-44000000D01*
X45000000Y-45000000D02*
X37000000Y-45000000D01*
X48500000Y-41500000D02*
X45000000Y-45000000D01*
X37540000Y-39960000D02*
X37540000Y-37500000D01*
X56000000Y-41500000D02*
X48500000Y-41500000D01*
X84500000Y-53500000D02*
X68000000Y-53500000D01*
X68000000Y-53500000D02*
X56000000Y-41500000D01*
X36000000Y-44000000D02*
X36000000Y-41500000D01*
X88000000Y-50000000D02*
X84500000Y-53500000D01*
X36000000Y-41500000D02*
X37540000Y-39960000D01*
X88000000Y-42000000D02*
X88000000Y-50000000D01*
X82000000Y-36000000D02*
X88000000Y-42000000D01*
G04 #@! TO.N,Net-(D2-Pad2)*
X36650000Y-59000000D02*
X29500000Y-59000000D01*
X29500000Y-59000000D02*
X29500000Y-62000000D01*
X29500000Y-56160000D02*
X29500000Y-59000000D01*
X40080000Y-42420000D02*
X40000000Y-42500000D01*
X40080000Y-37500000D02*
X40080000Y-42420000D01*
X36500000Y-58850000D02*
X36650000Y-59000000D01*
X36500000Y-56000000D02*
X36500000Y-58850000D01*
X40000000Y-52500000D02*
X36500000Y-56000000D01*
X40000000Y-51500000D02*
X40000000Y-52500000D01*
G04 #@! TO.N,Net-(D3-Pad2)*
X47700000Y-37500000D02*
X47700000Y-39800000D01*
X46182602Y-59000000D02*
X51000000Y-59000000D01*
X43000000Y-59000000D02*
X46182602Y-59000000D01*
X51000000Y-59000000D02*
X51000000Y-62000000D01*
X51000000Y-56160000D02*
X51000000Y-59000000D01*
X48160000Y-56160000D02*
X43500000Y-51500000D01*
X51000000Y-56160000D02*
X48160000Y-56160000D01*
X46000000Y-41500000D02*
X47700000Y-39800000D01*
X43500000Y-41500000D02*
X46000000Y-41500000D01*
G04 #@! TD*
M02*
